<svg width="1052" height="300" viewBox="0 0 1052 300" fill="none" xmlns="http://www.w3.org/2000/svg">
<g clip-path="url(#clip0_7783_1402)">
<path d="M12.0544 207.718L103.147 253.264C106.942 255.161 111.407 255.161 115.202 253.264L206.295 207.718C212.952 204.389 215.651 196.293 212.322 189.636L121.229 7.45004C116.263 -2.48335 102.087 -2.48335 97.1204 7.45004L6.02734 189.636C2.69859 196.293 5.39687 204.389 12.0544 207.718ZM91.9065 137.375C91.9065 127.838 99.6377 120.106 109.175 120.106C118.712 120.106 126.443 127.838 126.443 137.375C126.443 143.973 122.741 149.705 117.302 152.612L126.443 189.18H91.9068L101.049 152.612C95.6091 149.705 91.9065 143.973 91.9065 137.375Z" fill="#8058FF"/>
<path d="M198.845 226.619L115.202 268.441C111.408 270.338 106.942 270.338 103.148 268.441L19.5046 226.619C10.5435 222.139 0 228.655 0 238.674C0 243.779 2.8843 248.445 7.45004 250.728L103.147 298.577C106.942 300.474 111.408 300.474 115.202 298.577L210.9 250.728C215.466 248.445 218.35 243.779 218.35 238.674C218.35 228.655 207.806 222.139 198.845 226.619Z" fill="#4E38BA"/>
<path d="M333.837 66.8838C370.078 66.8838 393.097 86.9626 394.076 119.286H362.732C361.997 103.859 350.978 94.7988 333.346 94.7988C314.001 94.7988 301.513 104.104 301.513 119.042C301.513 131.776 308.369 138.876 323.307 142.305L351.467 148.427C382.077 155.038 397.015 170.711 397.015 197.403C397.015 230.705 371.057 252.255 331.633 252.255C293.432 252.255 268.454 231.93 267.72 199.851H299.065C299.308 215.033 311.553 224.093 331.633 224.093C352.448 224.093 365.671 215.033 365.671 200.097C365.671 188.097 359.548 180.995 344.855 177.813L316.45 171.445C286.086 164.833 270.169 147.448 270.169 120.021C270.169 88.6771 296.126 66.8838 333.837 66.8838Z" fill="#300057"/>
<path d="M478.555 124.673C516.021 124.673 543.203 150.63 543.203 188.341C543.203 226.052 516.02 252.01 478.555 252.01C441.09 252.01 413.908 226.053 413.908 188.341C413.908 150.628 441.089 124.673 478.555 124.673ZM478.555 225.318C499.124 225.318 513.328 210.381 513.328 188.341C513.328 166.301 499.124 151.366 478.555 151.366C457.986 151.366 443.783 166.302 443.783 188.341C443.783 210.38 457.986 225.318 478.555 225.318Z" fill="#300057"/>
<path d="M567.441 249.071V66.8838H597.07V249.071L567.441 249.071Z" fill="#300057"/>
<path d="M685.958 124.673C723.423 124.673 750.606 150.63 750.606 188.341C750.606 226.052 723.423 252.01 685.958 252.01C648.492 252.01 621.311 226.053 621.311 188.341C621.311 150.628 648.492 124.673 685.958 124.673ZM685.958 225.318C706.527 225.318 720.729 210.381 720.729 188.341C720.729 166.301 706.527 151.366 685.958 151.366C665.388 151.366 651.186 166.302 651.186 188.341C651.186 210.38 665.388 225.318 685.958 225.318Z" fill="#300057"/>
<path d="M767.254 189.077C767.254 151.366 789.293 124.429 825.779 124.429C842.676 124.429 857.612 131.531 865.204 143.53V66.8842H894.834V249.071H867.408L865.448 230.215C858.102 244.174 842.43 252.255 824.064 252.255C789.047 252.255 767.254 226.542 767.254 189.077ZM864.959 188.098C864.959 166.303 851.491 151.121 830.676 151.121C809.862 151.121 797.129 166.548 797.129 188.098C797.129 209.648 809.862 224.829 830.676 224.829C851.491 224.829 864.959 209.891 864.959 188.098Z" fill="#300057"/>
<path d="M922.501 85.7386C922.501 75.6992 930.582 67.863 940.867 67.863C950.661 67.863 958.742 75.6992 958.742 85.7386C958.742 95.778 950.661 103.859 940.867 103.859C930.582 103.859 922.501 95.778 922.501 85.7386ZM925.929 128.103H955.803V249.071H925.929V128.103Z" fill="#300057"/>
<path d="M997.918 249.071V153.081H974.654V128.103H997.918V90.3923H1027.79V128.103H1051.3V153.081H1027.79V249.071H997.918Z" fill="#300057"/>
</g>
<defs>
<clipPath id="clip0_7783_1402">
<rect width="1051.3" height="300" fill="white"/>
</clipPath>
</defs>
</svg>
