<svg width="300" height="300" viewBox="0 0 300 300" fill="none" xmlns="http://www.w3.org/2000/svg">
<path d="M66.7975 200.503L146.504 240.356C149.824 242.016 153.731 242.016 157.051 240.356L236.758 200.503C242.583 197.59 244.945 190.507 242.032 184.681L162.326 25.2688C157.98 16.5771 145.576 16.5771 141.23 25.2688L61.5238 184.682C58.6111 190.507 60.9721 197.59 66.7975 200.503ZM136.668 138.953C136.668 130.608 143.433 123.843 151.778 123.843C160.123 123.843 166.888 130.608 166.888 138.953C166.888 144.727 163.648 149.742 158.889 152.286L166.888 184.282H136.668L144.667 152.286C139.908 149.742 136.668 144.727 136.668 138.953Z" fill="black"/>
<path d="M230.239 217.042L157.052 253.636C153.732 255.296 149.824 255.296 146.504 253.636L73.3166 217.042C65.4756 213.121 56.25 218.823 56.25 227.59C56.25 232.056 58.7738 236.14 62.7688 238.137L146.504 280.005C149.824 281.665 153.732 281.665 157.052 280.005L240.788 238.137C244.783 236.14 247.306 232.056 247.306 227.59C247.306 218.823 238.08 213.122 230.239 217.042Z" fill="black"/>
</svg>
