<svg width="1052" height="301" viewBox="0 0 1052 301" fill="none" xmlns="http://www.w3.org/2000/svg">
<g clip-path="url(#clip0_7783_1389)">
<path d="M12.0544 208.648L103.147 254.195C106.942 256.092 111.407 256.092 115.202 254.195L206.295 208.648C212.952 205.319 215.651 197.224 212.322 190.566L121.229 8.3804C116.263 -1.55299 102.087 -1.55299 97.1204 8.3804L6.02734 190.566C2.69859 197.224 5.39687 205.319 12.0544 208.648ZM91.9065 138.305C91.9065 128.768 99.6377 121.037 109.175 121.037C118.712 121.037 126.443 128.768 126.443 138.305C126.443 144.904 122.741 150.636 117.302 153.543L126.443 190.11H91.9068L101.049 153.543C95.6091 150.636 91.9065 144.904 91.9065 138.305Z" fill="black"/>
<path d="M198.845 227.549L115.202 269.371C111.408 271.268 106.942 271.268 103.148 269.371L19.5046 227.549C10.5435 223.069 0 229.585 0 239.604C0 244.709 2.8843 249.376 7.45004 251.659L103.147 299.507C106.942 301.405 111.408 301.405 115.202 299.507L210.9 251.659C215.466 249.376 218.35 244.709 218.35 239.604C218.35 229.585 207.806 223.069 198.845 227.549Z" fill="black"/>
<path d="M333.837 67.8142C370.078 67.8142 393.097 87.893 394.076 120.216H362.732C361.997 104.79 350.978 95.7292 333.346 95.7292C314.001 95.7292 301.513 105.035 301.513 119.973C301.513 132.706 308.369 139.806 323.307 143.236L351.467 149.357C382.077 155.969 397.015 171.641 397.015 198.333C397.015 231.636 371.057 253.186 331.633 253.186C293.432 253.186 268.454 232.86 267.72 200.782H299.065C299.308 215.964 311.553 225.024 331.633 225.024C352.448 225.024 365.671 215.964 365.671 201.027C365.671 189.028 359.548 181.926 344.855 178.743L316.45 172.375C286.086 165.763 270.169 148.378 270.169 120.952C270.169 89.6076 296.126 67.8142 333.837 67.8142Z" fill="black"/>
<path d="M478.555 125.604C516.021 125.604 543.203 151.56 543.203 189.271C543.203 226.982 516.02 252.94 478.555 252.94C441.09 252.94 413.908 226.984 413.908 189.271C413.908 151.559 441.089 125.604 478.555 125.604ZM478.555 226.248C499.124 226.248 513.328 211.312 513.328 189.272C513.328 167.231 499.124 152.296 478.555 152.296C457.986 152.296 443.783 167.233 443.783 189.272C443.783 211.31 457.986 226.248 478.555 226.248Z" fill="black"/>
<path d="M567.441 250.002V67.8142H597.07V250.001L567.441 250.002Z" fill="black"/>
<path d="M685.958 125.604C723.423 125.604 750.606 151.56 750.606 189.271C750.606 226.982 723.423 252.94 685.958 252.94C648.492 252.94 621.311 226.984 621.311 189.271C621.311 151.559 648.492 125.604 685.958 125.604ZM685.958 226.248C706.527 226.248 720.729 211.312 720.729 189.272C720.729 167.231 706.527 152.296 685.958 152.296C665.388 152.296 651.186 167.233 651.186 189.272C651.186 211.31 665.388 226.248 685.958 226.248Z" fill="black"/>
<path d="M767.254 190.007C767.254 152.296 789.293 125.359 825.779 125.359C842.676 125.359 857.612 132.461 865.204 144.46V67.8145H894.834V250.002H867.408L865.448 231.145C858.102 245.105 842.43 253.186 824.064 253.186C789.047 253.186 767.254 227.473 767.254 190.007ZM864.959 189.028C864.959 167.233 851.491 152.051 830.676 152.051C809.862 152.051 797.129 167.478 797.129 189.028C797.129 210.578 809.862 225.76 830.676 225.76C851.491 225.76 864.959 210.822 864.959 189.028Z" fill="black"/>
<path d="M922.501 86.6689C922.501 76.6295 930.582 68.7933 940.867 68.7933C950.661 68.7933 958.742 76.6295 958.742 86.6689C958.742 96.7083 950.661 104.79 940.867 104.79C930.582 104.79 922.501 96.7083 922.501 86.6689ZM925.929 129.033H955.803V250.002H925.929V129.033Z" fill="black"/>
<path d="M997.918 250.002V154.011H974.654V129.033H997.918V91.3226H1027.79V129.033H1051.3V154.011H1027.79V250.002H997.918Z" fill="black"/>
</g>
<defs>
<clipPath id="clip0_7783_1389">
<rect width="1051.3" height="300" fill="white" transform="translate(0 0.930359)"/>
</clipPath>
</defs>
</svg>
