<svg width="172" height="32" viewBox="0 0 172 32" fill="none" xmlns="http://www.w3.org/2000/svg">
<path fill-rule="evenodd" clip-rule="evenodd" d="M23.6905 28.6796L30.826 16.3204C30.9405 16.1222 30.9405 15.8779 30.826 15.6796L23.6905 3.32044C23.576 3.12216 23.3644 3 23.1354 3H8.86421C8.63524 3 8.42368 3.12216 8.30919 3.32044L1.17375 15.6796C1.05927 15.8779 1.05927 16.1222 1.17375 16.3204L8.30929 28.6796C8.42376 28.8778 8.63534 29 8.8643 29H23.1355C23.3645 29 23.5761 28.8778 23.6905 28.6796ZM12.7827 24.9198C12.3205 25.7203 11.2969 25.9946 10.4963 25.5323C9.69577 25.0702 9.4216 24.0466 9.88378 23.2461L10.9407 21.4154C11.403 20.6148 12.4265 20.3404 13.2273 20.8027C14.0278 21.2649 14.3019 22.2884 13.8397 23.0891L12.7827 24.9198ZM19.3618 24.6244C19.8239 25.425 20.8475 25.6992 21.6482 25.2371C22.4488 24.775 22.723 23.7513 22.2608 22.9508L18.5957 16.6024C17.6848 15.0251 16.0019 14.0533 14.1802 14.0533L6.84995 14.0533C5.92559 14.0533 5.17633 14.8027 5.17632 15.727C5.17629 16.6514 5.92577 17.4007 6.85 17.4007L14.18 17.4008C14.8058 17.4006 15.384 17.7345 15.6967 18.2762L19.3618 24.6244Z" fill="#66C61C"/>
<path d="M45.8 24.24C41.54 24.24 38.78 21.28 38.78 16.7C38.78 12.16 41.64 9.14 45.92 9.14C49.38 9.14 51.96 11.16 52.46 14.3H49.76C49.26 12.6 47.8 11.6 45.86 11.6C43.16 11.6 41.46 13.56 41.46 16.68C41.46 19.78 43.18 21.78 45.86 21.78C47.84 21.78 49.36 20.74 49.84 19.12H52.5C51.94 22.2 49.26 24.24 45.8 24.24ZM53.5758 28.58V26.54H55.0358C55.9958 26.54 56.5958 26.32 57.0158 25.16L57.2958 24.42L53.3158 14.12H55.8958L58.4358 21.32L61.1158 14.12H63.6358L58.7958 26.2C58.0558 28.04 57.0158 28.8 55.3958 28.8C54.7158 28.8 54.1158 28.72 53.5758 28.58ZM64.0417 14.12H65.4617V12.92C65.4617 10.24 66.8817 9.12 69.0217 9.12C69.4017 9.12 69.8617 9.14 70.2817 9.22V11.3H69.4217C68.1817 11.3 67.8817 11.94 67.8817 12.92V14.12H70.2417V16.16H67.8817V24H65.4617V16.16H64.0417V14.12ZM77.9991 14.08V16.34H77.0991C75.3391 16.34 74.2391 17.28 74.2391 19.2V24H71.7991V14.14H74.0991L74.2391 15.58C74.6591 14.6 75.5991 13.94 76.9191 13.94C77.2591 13.94 77.5991 13.98 77.9991 14.08ZM80.8706 12.14C80.0306 12.14 79.3706 11.48 79.3706 10.66C79.3706 9.84 80.0306 9.2 80.8706 9.2C81.6706 9.2 82.3306 9.84 82.3306 10.66C82.3306 11.48 81.6706 12.14 80.8706 12.14ZM79.6506 24V14.12H82.0906V24H79.6506ZM87.0516 24H84.6116V14.12H86.8716L87.0716 15.4C87.6916 14.4 88.8916 13.82 90.2316 13.82C92.7116 13.82 93.9916 15.36 93.9916 17.92V24H91.5516V18.5C91.5516 16.84 90.7316 16.04 89.4716 16.04C87.9716 16.04 87.0516 17.08 87.0516 18.68V24ZM102.04 18.66V9.38H104.6V18.5C104.6 20.6 105.74 21.76 107.82 21.76C109.9 21.76 111.06 20.58 111.06 18.5V9.38H113.62V18.66C113.62 22.08 111.38 24.24 107.82 24.24C104.28 24.24 102.04 22.1 102.04 18.66ZM116.408 28.58V14.12H118.668L118.828 15.62C119.428 14.48 120.728 13.82 122.228 13.82C125.008 13.82 126.848 15.84 126.848 18.94C126.848 22.02 125.168 24.26 122.228 24.26C120.748 24.26 119.468 23.68 118.848 22.68V28.58H116.408ZM118.868 19.06C118.868 20.84 119.968 22.06 121.648 22.06C123.368 22.06 124.388 20.82 124.388 19.06C124.388 17.3 123.368 16.04 121.648 16.04C119.968 16.04 118.868 17.28 118.868 19.06ZM132.851 24.26C129.991 24.26 128.211 22.16 128.211 19.1C128.211 16.02 130.011 13.82 132.991 13.82C134.371 13.82 135.591 14.4 136.211 15.38V9.12H138.631V24H136.391L136.231 22.46C135.631 23.6 134.351 24.26 132.851 24.26ZM133.391 22.02C135.091 22.02 136.191 20.8 136.191 19.02C136.191 17.24 135.091 16 133.391 16C131.691 16 130.651 17.26 130.651 19.02C130.651 20.78 131.691 22.02 133.391 22.02ZM147.374 14.08V16.34H146.474C144.714 16.34 143.614 17.28 143.614 19.2V24H141.174V14.14H143.474L143.614 15.58C144.034 14.6 144.974 13.94 146.294 13.94C146.634 13.94 146.974 13.98 147.374 14.08ZM151.575 24.26C149.475 24.26 148.195 23.04 148.195 21.18C148.195 19.36 149.515 18.22 151.855 18.04L154.815 17.82V17.6C154.815 16.26 154.015 15.72 152.775 15.72C151.335 15.72 150.535 16.32 150.535 17.36H148.455C148.455 15.22 150.215 13.82 152.895 13.82C155.555 13.82 157.195 15.26 157.195 18V24H155.055L154.875 22.54C154.455 23.56 153.115 24.26 151.575 24.26ZM152.375 22.42C153.875 22.42 154.835 21.52 154.835 20V19.48L152.775 19.64C151.255 19.78 150.675 20.28 150.675 21.08C150.675 21.98 151.275 22.42 152.375 22.42ZM158.573 14.12H159.993V12.92C159.993 10.24 161.393 9.12 163.393 9.12C163.773 9.12 164.233 9.14 164.653 9.22V11.3H163.793C162.693 11.3 162.413 11.94 162.413 12.92V14.12H166.573V11.04H169.013V14.12H170.933V16.16H169.013V24H166.573V16.16H162.413V24H159.993V16.16H158.573V14.12Z" fill="white"/>
</svg>
