<svg width="128" height="128" viewBox="0 0 128 128" fill="none" xmlns="http://www.w3.org/2000/svg">
<path fill-rule="evenodd" clip-rule="evenodd" d="M94.7622 114.718L123.304 65.2818C123.762 64.4886 123.762 63.5114 123.304 62.7183L94.7618 13.2818C94.3039 12.4886 93.4576 12 92.5417 12H35.4568C34.541 12 33.6947 12.4886 33.2368 13.2818L4.69499 62.7183C4.23709 63.5114 4.23709 64.4886 4.69499 65.2818L33.2371 114.718C33.6951 115.511 34.5414 116 35.4572 116H92.5421C93.458 116 94.3042 115.511 94.7622 114.718ZM51.1267 99.6792C49.278 102.881 45.1834 103.978 41.9809 102.129C38.7789 100.281 37.6823 96.1864 39.531 92.9844L43.7589 85.6615C45.6078 82.4591 49.702 81.3616 52.905 83.2108C56.1069 85.0595 57.2036 89.1538 55.3546 92.3563L51.1267 99.6792ZM77.445 98.4975C79.2935 101.7 83.388 102.797 86.5905 100.948C89.7931 99.0998 90.8899 95.0053 89.0411 91.8032L74.3807 66.4098C70.7372 60.1003 64.0054 56.2131 56.7185 56.2131L27.3977 56.2134C23.7002 56.2133 20.7032 59.2106 20.7031 62.9081C20.703 66.6056 23.7009 69.6029 27.3978 69.6026L56.718 69.6034C59.2211 69.6025 61.534 70.9378 62.7848 73.1047L77.445 98.4975Z" fill="#66C61C"/>
</svg>
