<svg width="950" height="301" viewBox="0 0 950 301" fill="none" xmlns="http://www.w3.org/2000/svg">
<path fill-rule="evenodd" clip-rule="evenodd" d="M220.621 247.704L138.898 298.954C135.738 300.936 131.744 301.018 128.506 299.168L49.5666 254.069C42.1481 249.837 34.9127 245.142 28.9595 238.873C6.9175 215.625 1.95654 188.908 2.46027 177.324L0.521881 30.4243C0.466581 26.2335 3.00704 22.4228 6.93614 20.9638C104.753 -15.3594 207.025 4.43796 252.417 21.0687C256.233 22.4667 258.665 26.1066 258.718 30.1702L260.66 177.324C260.66 201.367 247.426 229.31 220.621 247.704ZM174.134 34.126C176.494 32.6695 175.815 29.1021 173.076 28.6675C108.095 18.3573 47.4579 31.6279 28.1186 41.7376C26.5992 42.5319 25.7415 44.1197 25.7183 45.8341L24.0612 167.934C21.6501 192.236 39.7548 215.313 49.4705 224.182C49.7227 224.412 49.9917 224.605 50.2868 224.777L130.327 271.43C131.954 272.378 133.973 272.344 135.567 271.341L203.236 228.783C213.357 222.418 223.431 215.258 229.354 204.596C236.692 191.4 237.575 178.992 236.553 171.429C236.286 169.454 234.091 168.576 232.383 169.604L133.197 229.316C131.594 230.281 129.59 230.282 127.986 229.319L63.5023 190.619C61.9792 189.705 61.0472 188.058 61.0472 186.282V106.725C61.0472 104.97 61.9562 103.341 63.4491 102.42L174.134 34.126ZM205.39 89.6585C205.373 89.6249 205.331 89.612 205.297 89.6296L218.445 81.1697C219.949 80.2021 221.959 80.738 222.782 82.3258L229.107 94.5356C229.84 95.9494 229.355 97.6888 227.997 98.5199L217.313 105.059C215.916 105.914 214.093 105.506 213.193 104.138L212.71 103.402C211.805 102.026 209.967 101.623 208.569 102.494L179.602 120.548C178.712 121.102 178.172 122.075 178.172 123.123V161.8C178.172 164.137 180.702 165.597 182.725 164.427L209.8 148.775C211.256 147.933 211.75 146.067 210.9 144.616L210.237 143.483C209.396 142.044 209.872 140.196 211.304 139.343L222.684 132.567C224.143 131.699 226.03 132.196 226.872 133.67L233.37 145.05C234.185 146.478 233.715 148.295 232.31 149.148L221.052 155.99C219.666 156.832 217.859 156.398 217.008 155.017C216.166 153.653 214.389 153.21 213.005 154.02L134.202 200.146C133.279 200.686 132.141 200.701 131.204 200.185L86.7606 175.695C85.8029 175.167 85.2032 174.165 85.1907 173.072L84.5591 117.857C84.5468 116.783 85.103 115.782 86.0217 115.226L174.272 61.7877C175.69 60.9288 176.156 59.0904 175.319 57.6592L174.652 56.5199C173.8 55.0631 174.3 53.1906 175.765 52.3528L187.731 45.5107C189.205 44.6681 191.083 45.1982 191.899 46.6869L198.514 58.7607C199.294 60.1842 198.816 61.9694 197.429 62.8123L185.995 69.7604C184.669 70.5663 182.943 70.1816 182.085 68.8887C181.235 67.608 179.531 67.2166 178.207 67.9979L141.209 89.8313C139.225 91.0021 139.218 93.8701 141.196 95.0507L174.916 115.174C175.893 115.757 177.115 115.744 178.08 115.141L206.347 97.4634C207.699 96.6182 208.166 94.8714 207.417 93.4644L205.39 89.6585Z" fill="#155EEF"/>
<path d="M433.662 228.5C388.019 228.5 358.448 196.786 358.448 147.714C358.448 99.0714 389.091 66.7143 434.948 66.7143C472.019 66.7143 499.662 88.3571 505.019 122H476.091C470.733 103.786 455.091 93.0714 434.305 93.0714C405.376 93.0714 387.162 114.071 387.162 147.5C387.162 180.714 405.591 202.143 434.305 202.143C455.519 202.143 471.805 191 476.948 173.643H505.448C499.448 206.643 470.733 228.5 433.662 228.5Z" fill="#101828"/>
<path d="M516.974 275V253.143H532.617C542.902 253.143 549.331 250.786 553.831 238.357L556.831 230.429L514.188 120.071H541.831L569.045 197.214L597.76 120.071H624.76L572.902 249.5C564.974 269.214 553.831 277.357 536.474 277.357C529.188 277.357 522.76 276.5 516.974 275Z" fill="#101828"/>
<path d="M629.109 120.071H644.323V107.214C644.323 78.5 659.537 66.5 682.466 66.5C686.537 66.5 691.466 66.7143 695.966 67.5714V89.8571H686.752C673.466 89.8571 670.252 96.7143 670.252 107.214V120.071H695.537V141.929H670.252V225.929H644.323V141.929H629.109V120.071Z" fill="#101828"/>
<path d="M778.652 119.643V143.857H769.009C750.152 143.857 738.366 153.929 738.366 174.5V225.929H712.223V120.286H736.866L738.366 135.714C742.866 125.214 752.938 118.143 767.08 118.143C770.723 118.143 774.366 118.571 778.652 119.643Z" fill="#101828"/>
<path d="M809.419 98.8571C800.419 98.8571 793.347 91.7857 793.347 83C793.347 74.2143 800.419 67.3571 809.419 67.3571C817.99 67.3571 825.061 74.2143 825.061 83C825.061 91.7857 817.99 98.8571 809.419 98.8571ZM796.347 225.929V120.071H822.49V225.929H796.347Z" fill="#101828"/>
<path d="M875.643 225.929H849.5V120.071H873.714L875.857 133.786C882.5 123.071 895.357 116.857 909.714 116.857C936.286 116.857 950 133.357 950 160.786V225.929H923.857V167C923.857 149.214 915.072 140.643 901.572 140.643C885.5 140.643 875.643 151.786 875.643 168.929V225.929Z" fill="#101828"/>
</svg>
