<svg width="149" height="48" viewBox="0 0 149 48" fill="none" xmlns="http://www.w3.org/2000/svg">
<path fill-rule="evenodd" clip-rule="evenodd" d="M36.607 37.6086L25.1658 44.7836C24.7234 45.061 24.1642 45.0725 23.7109 44.8135L12.6594 38.4997C11.6208 37.9071 10.6078 37.2499 9.77436 36.3722C6.68848 33.1175 5.99395 29.3771 6.06447 27.7553L5.79309 7.18941C5.78535 6.60268 6.14101 6.0692 6.69109 5.86493C20.3854 0.779685 34.7035 3.55131 41.0584 5.87961C41.5927 6.07534 41.9331 6.58492 41.9406 7.15383L42.2124 27.7553C42.2124 31.1214 40.3596 35.0333 36.607 37.6086ZM30.0988 7.70763C30.4292 7.50373 30.3341 7.0043 29.9506 6.94345C20.8533 5.50002 12.3641 7.35791 9.65664 8.77327C9.44392 8.88446 9.32384 9.10676 9.32059 9.34677L9.0886 26.4408C8.75104 29.8431 11.2857 33.0739 12.6459 34.3155C12.6812 34.3477 12.7189 34.3747 12.7602 34.3988L23.9659 40.9301C24.1936 41.0629 24.4762 41.0581 24.6994 40.9178L34.1731 34.9596C35.59 34.0685 37.0004 33.0661 37.8296 31.5735C38.8569 29.7259 38.9806 27.9889 38.8374 26.9301C38.8 26.6535 38.4928 26.5306 38.2537 26.6745L24.3676 35.0342C24.1432 35.1693 23.8626 35.1695 23.638 35.0347L14.6103 29.6166C14.3971 29.4886 14.2666 29.2582 14.2666 29.0095V17.8714C14.2666 17.6258 14.3939 17.3978 14.6029 17.2688L30.0988 7.70763ZM34.4747 15.4822C34.4722 15.4775 34.4664 15.4757 34.4616 15.4781L36.3024 14.2938C36.5129 14.1583 36.7943 14.2333 36.9095 14.4556L37.7951 16.165C37.8976 16.3629 37.8297 16.6064 37.6396 16.7228L36.1438 17.6382C35.9482 17.7579 35.693 17.7008 35.567 17.5093L35.4994 17.4063C35.3727 17.2136 35.1154 17.1572 34.9197 17.2792L30.8642 19.8067C30.7398 19.8842 30.6641 20.0205 30.6641 20.1672V25.582C30.6641 25.9092 31.0184 26.1135 31.3016 25.9498L35.092 23.7586C35.2959 23.6407 35.365 23.3794 35.2461 23.1762L35.1533 23.0176C35.0354 22.8162 35.1021 22.5574 35.3026 22.438L36.8958 21.4894C37.1 21.3678 37.3642 21.4374 37.4821 21.6438L38.3918 23.237C38.5059 23.4369 38.4401 23.6912 38.2435 23.8107L36.6673 24.7686C36.4732 24.8865 36.2203 24.8257 36.1011 24.6324C35.9833 24.4414 35.7345 24.3794 35.5408 24.4928L24.5083 30.9504C24.3791 31.026 24.2197 31.0281 24.0886 30.9559L17.8665 27.5273C17.7324 27.4534 17.6485 27.3131 17.6467 27.16L17.5583 19.4299C17.5566 19.2796 17.6345 19.1395 17.7631 19.0617L30.1181 11.5803C30.3166 11.46 30.3819 11.2027 30.2647 11.0023L30.1713 10.8428C30.052 10.6388 30.122 10.3767 30.3271 10.2594L32.0024 9.3015C32.2087 9.18353 32.4717 9.25774 32.5859 9.46617L33.5121 11.1565C33.6212 11.3558 33.5543 11.6057 33.3601 11.7237L31.7594 12.6965C31.5737 12.8093 31.3321 12.7554 31.2119 12.5744C31.0929 12.3951 30.8544 12.3403 30.669 12.4497L25.4893 15.5064C25.2115 15.6703 25.2105 16.0718 25.4875 16.2371L30.2083 19.0543C30.3451 19.136 30.5161 19.1342 30.6513 19.0497L34.6086 16.5749C34.7978 16.4566 34.8633 16.212 34.7584 16.015L34.4747 15.4822Z" fill="#155EEF"/>
<path d="M70.532 34.9202C64.142 34.9202 60.002 30.4802 60.002 23.6102C60.002 16.8002 64.292 12.2702 70.712 12.2702C75.902 12.2702 79.772 15.3002 80.522 20.0102H76.472C75.722 17.4602 73.532 15.9602 70.622 15.9602C66.572 15.9602 64.022 18.9002 64.022 23.5802C64.022 28.2302 66.602 31.2302 70.622 31.2302C73.592 31.2302 75.872 29.6702 76.592 27.2402H80.582C79.742 31.8602 75.722 34.9202 70.532 34.9202Z" fill="white"/>
<path d="M82.1956 41.4302V38.3702H84.3856C85.8256 38.3702 86.7256 38.0402 87.3556 36.3002L87.7756 35.1902L81.8056 19.7402H85.6756L89.4856 30.5402L93.5056 19.7402H97.2856L90.0256 37.8602C88.9156 40.6202 87.3556 41.7602 84.9256 41.7602C83.9056 41.7602 83.0056 41.6402 82.1956 41.4302Z" fill="white"/>
<path d="M97.8945 19.7402H100.025V17.9402C100.025 13.9202 102.155 12.2402 105.365 12.2402C105.935 12.2402 106.625 12.2702 107.255 12.3902V15.5102H105.965C104.105 15.5102 103.655 16.4702 103.655 17.9402V19.7402H107.195V22.8002H103.655V34.5602H100.025V22.8002H97.8945V19.7402Z" fill="white"/>
<path d="M118.831 19.6802V23.0702H117.481C114.841 23.0702 113.191 24.4802 113.191 27.3602V34.5602H109.531V19.7702H112.981L113.191 21.9302C113.821 20.4602 115.231 19.4702 117.211 19.4702C117.721 19.4702 118.231 19.5302 118.831 19.6802Z" fill="white"/>
<path d="M123.138 16.7702C121.878 16.7702 120.888 15.7802 120.888 14.5502C120.888 13.3202 121.878 12.3602 123.138 12.3602C124.338 12.3602 125.328 13.3202 125.328 14.5502C125.328 15.7802 124.338 16.7702 123.138 16.7702ZM121.308 34.5602V19.7402H124.968V34.5602H121.308Z" fill="white"/>
<path d="M132.409 34.5602H128.749V19.7402H132.139L132.439 21.6602C133.369 20.1602 135.169 19.2902 137.179 19.2902C140.899 19.2902 142.819 21.6002 142.819 25.4402V34.5602H139.159V26.3102C139.159 23.8202 137.929 22.6202 136.039 22.6202C133.789 22.6202 132.409 24.1802 132.409 26.5802V34.5602Z" fill="white"/>
</svg>
