<svg width="950" height="300" viewBox="0 0 950 300" fill="none" xmlns="http://www.w3.org/2000/svg">
<path fill-rule="evenodd" clip-rule="evenodd" d="M220.1 247.204L138.377 298.454C135.217 300.436 131.223 300.518 127.985 298.668L49.0456 253.569C41.6271 249.337 34.3917 244.642 28.4385 238.373C6.3965 215.125 1.43555 188.408 1.93928 176.824L0.000885063 29.9243C-0.0544154 25.7335 2.48604 21.9228 6.41515 20.4638C104.232 -15.8594 206.504 3.93796 251.896 20.5687C255.712 21.9667 258.144 25.6066 258.197 29.6702L260.139 176.824C260.139 200.867 246.905 228.81 220.1 247.204ZM173.613 33.626C175.973 32.1695 175.294 28.6021 172.555 28.1675C107.574 17.8573 46.9369 31.1279 27.5976 41.2376C26.0782 42.0319 25.2205 43.6197 25.1973 45.3341L23.5402 167.434C21.1291 191.736 39.2338 214.813 48.9495 223.682C49.2017 223.912 49.4707 224.105 49.7658 224.277L129.806 270.93C131.433 271.878 133.452 271.844 135.046 270.841L202.715 228.283C212.836 221.918 222.91 214.758 228.833 204.096C236.171 190.9 237.054 178.492 236.032 170.929C235.765 168.954 233.57 168.076 231.862 169.104L132.676 228.816C131.073 229.781 129.069 229.782 127.465 228.819L62.9813 190.119C61.4582 189.205 60.5262 187.558 60.5262 185.782V106.225C60.5262 104.47 61.4352 102.841 62.9281 101.92L173.613 33.626ZM204.869 89.1585C204.852 89.1249 204.81 89.112 204.776 89.1296L217.924 80.6697C219.428 79.7021 221.438 80.238 222.261 81.8258L228.586 94.0356C229.319 95.4494 228.834 97.1888 227.476 98.0199L216.792 104.559C215.395 105.414 213.572 105.006 212.672 103.638L212.189 102.902C211.284 101.526 209.446 101.123 208.048 101.994L179.081 120.048C178.191 120.602 177.651 121.575 177.651 122.623V161.3C177.651 163.637 180.181 165.097 182.204 163.927L209.279 148.275C210.735 147.433 211.229 145.567 210.379 144.116L209.716 142.983C208.875 141.544 209.351 139.696 210.783 138.843L222.163 132.067C223.622 131.199 225.509 131.696 226.351 133.17L232.849 144.55C233.664 145.978 233.194 147.795 231.789 148.648L220.531 155.49C219.145 156.332 217.338 155.898 216.487 154.517C215.645 153.153 213.868 152.71 212.484 153.52L133.681 199.646C132.758 200.186 131.62 200.201 130.683 199.685L86.2396 175.195C85.2819 174.667 84.6822 173.665 84.6697 172.572L84.0381 117.357C84.0258 116.283 84.582 115.282 85.5007 114.726L173.751 61.2877C175.169 60.4288 175.635 58.5904 174.798 57.1592L174.131 56.0199C173.279 54.5631 173.779 52.6906 175.244 51.8528L187.21 45.0107C188.684 44.1681 190.562 44.6982 191.378 46.1869L197.993 58.2607C198.773 59.6842 198.295 61.4694 196.908 62.3123L185.474 69.2604C184.148 70.0663 182.422 69.6816 181.564 68.3887C180.714 67.108 179.01 66.7166 177.686 67.4979L140.688 89.3313C138.704 90.5021 138.697 93.3701 140.675 94.5507L174.395 114.674C175.372 115.257 176.594 115.244 177.559 114.641L205.826 96.9634C207.178 96.1182 207.645 94.3714 206.896 92.9644L204.869 89.1585Z" fill="black"/>
<path d="M433.141 228C387.498 228 357.927 196.286 357.927 147.214C357.927 98.5714 388.57 66.2143 434.427 66.2143C471.498 66.2143 499.141 87.8571 504.498 121.5H475.57C470.212 103.286 454.57 92.5714 433.784 92.5714C404.855 92.5714 386.641 113.571 386.641 147C386.641 180.214 405.07 201.643 433.784 201.643C454.998 201.643 471.284 190.5 476.427 173.143H504.927C498.927 206.143 470.212 228 433.141 228Z" fill="black"/>
<path d="M516.453 274.5V252.643H532.096C542.381 252.643 548.81 250.286 553.31 237.857L556.31 229.929L513.667 119.571H541.31L568.524 196.714L597.239 119.571H624.239L572.381 249C564.453 268.714 553.31 276.857 535.953 276.857C528.667 276.857 522.239 276 516.453 274.5Z" fill="black"/>
<path d="M628.588 119.571H643.802V106.714C643.802 78 659.016 66 681.945 66C686.016 66 690.945 66.2143 695.445 67.0714V89.3571H686.231C672.945 89.3571 669.731 96.2143 669.731 106.714V119.571H695.016V141.429H669.731V225.429H643.802V141.429H628.588V119.571Z" fill="black"/>
<path d="M778.131 119.143V143.357H768.488C749.631 143.357 737.845 153.429 737.845 174V225.429H711.702V119.786H736.345L737.845 135.214C742.345 124.714 752.417 117.643 766.559 117.643C770.202 117.643 773.845 118.071 778.131 119.143Z" fill="black"/>
<path d="M808.898 98.3571C799.898 98.3571 792.826 91.2857 792.826 82.5C792.826 73.7143 799.898 66.8571 808.898 66.8571C817.469 66.8571 824.54 73.7143 824.54 82.5C824.54 91.2857 817.469 98.3571 808.898 98.3571ZM795.826 225.429V119.571H821.969V225.429H795.826Z" fill="black"/>
<path d="M875.122 225.429H848.979V119.571H873.193L875.336 133.286C881.979 122.571 894.836 116.357 909.193 116.357C935.765 116.357 949.479 132.857 949.479 160.286V225.429H923.336V166.5C923.336 148.714 914.551 140.143 901.051 140.143C884.979 140.143 875.122 151.286 875.122 168.429V225.429Z" fill="black"/>
</svg>
