<svg width="417" height="480" viewBox="0 0 417 480" fill="none" xmlns="http://www.w3.org/2000/svg">
<path fill-rule="evenodd" clip-rule="evenodd" d="M352.16 395.527L221.403 477.527C216.348 480.697 209.957 480.829 204.776 477.868L78.473 405.711C66.6033 398.939 55.0267 391.428 45.5016 381.397C10.2344 344.2 2.29688 301.453 3.10285 282.918L0.0014161 47.879C-0.0870647 41.1735 3.97767 35.0765 10.2642 32.7421C166.771 -25.375 330.406 6.30074 403.034 32.9098C409.139 35.1468 413.03 40.9705 413.116 47.4723L416.223 282.918C416.223 321.388 395.048 366.095 352.16 395.527ZM277.78 53.8015C281.557 51.4712 280.47 45.7634 276.087 45.068C172.119 28.5716 75.099 49.8047 44.1562 65.9802C41.7252 67.251 40.3529 69.7916 40.3156 72.5345L37.6644 267.894C33.8065 306.778 62.7741 343.702 78.3191 357.891C78.7228 358.259 79.1532 358.568 79.6253 358.844L207.69 433.487C210.293 435.004 213.523 434.95 216.073 433.346L324.345 365.253C340.537 355.069 356.657 343.612 366.133 326.554C377.874 305.439 379.287 285.588 377.651 273.486C377.223 270.326 373.712 268.921 370.98 270.566L212.282 366.105C209.717 367.649 206.51 367.651 203.944 366.111L100.77 304.19C98.3331 302.727 96.842 300.093 96.842 297.251V169.959C96.842 167.153 98.2964 164.546 100.685 163.072L277.78 53.8015ZM327.791 142.654C327.763 142.6 327.696 142.579 327.642 142.607L348.679 129.072C351.085 127.523 354.301 128.381 355.617 130.921L365.738 150.457C366.91 152.719 366.134 155.502 363.962 156.832L346.867 167.294C344.632 168.662 341.715 168.009 340.275 165.82L339.502 164.644C338.054 162.441 335.113 161.796 332.876 163.19L286.529 192.076C285.106 192.963 284.242 194.521 284.242 196.197V258.08C284.242 261.819 288.29 264.155 291.527 262.284L334.846 237.241C337.176 235.894 337.966 232.908 336.607 230.585L335.546 228.773C334.199 226.471 334.961 223.513 337.253 222.149L355.461 211.307C357.795 209.918 360.815 210.713 362.161 213.072L372.558 231.28C373.862 233.564 373.111 236.471 370.863 237.837L352.849 248.784C350.631 250.132 347.741 249.437 346.379 247.228C345.032 245.045 342.189 244.336 339.975 245.632L213.889 319.434C212.413 320.298 210.591 320.321 209.093 319.496L137.983 280.311C136.451 279.467 135.492 277.864 135.471 276.114L134.461 187.771C134.441 186.053 135.331 184.452 136.801 183.562L278.001 98.0603C280.271 96.6861 281.017 93.7446 279.677 91.4547L278.61 89.6318C277.246 87.3009 278.046 84.305 280.391 82.9645L299.537 72.0171C301.895 70.6689 304.9 71.5171 306.205 73.8991L316.79 93.2172C318.037 95.4947 317.272 98.351 315.053 99.6996L296.759 110.817C294.637 112.106 291.876 111.49 290.503 109.422C289.142 107.373 286.416 106.746 284.298 107.997L225.101 142.93C221.926 144.803 221.915 149.392 225.08 151.281L279.032 183.478C280.596 184.411 282.551 184.391 284.095 183.425L329.322 155.141C331.484 153.789 332.232 150.994 331.033 148.743L327.791 142.654Z" fill="black"/>
</svg>
