<svg width="300" height="300" viewBox="0 0 300 300" fill="none" xmlns="http://www.w3.org/2000/svg">
<path d="M278.027 84.8105L284.031 29.7771C284.165 28.5458 282.877 27.7081 281.894 28.388L240.179 57.25L176.084 97.099C175.575 97.415 175.313 98.0359 175.429 98.6461L184.575 146.631C184.668 147.121 184.518 147.627 184.176 147.973L150.426 182.15C150.154 182.426 150 182.807 150 183.205V270.391C150 271.787 151.679 272.388 152.485 271.281L174.859 240.546C175.045 240.29 175.145 239.977 175.145 239.656V221.402C175.145 220.134 176.571 219.468 177.461 220.319L185.961 228.441C186.513 228.969 187.364 228.941 187.884 228.377L210.92 203.41C211.849 202.402 211.027 200.727 209.71 200.947L200.053 202.557C199.752 202.607 199.443 202.552 199.176 202.398L190.181 197.253C189.057 196.611 189.287 194.843 190.533 194.543L226.918 185.78C227.144 185.725 227.353 185.612 227.527 185.45L251.233 163.355C252.189 162.464 251.592 160.798 250.315 160.798H236.109C235.796 160.798 235.492 160.687 235.247 160.481L222.356 149.674C221.38 148.855 221.846 147.199 223.088 147.075L253.31 144.048C253.731 144.006 254.11 143.763 254.341 143.389L271.548 115.444C272.147 114.472 271.485 113.186 270.386 113.186H254.192C252.948 113.186 252.334 111.591 253.227 110.676L277.616 85.6919C277.845 85.4569 277.991 85.1455 278.027 84.8105Z" fill="white"/>
<path d="M21.9729 84.8105L15.9692 29.7771C15.8349 28.5458 17.1233 27.7081 18.1058 28.388L59.8207 57.25L123.916 97.099C124.425 97.415 124.687 98.0359 124.571 98.6461L115.425 146.631C115.332 147.121 115.482 147.627 115.824 147.973L149.574 182.15C149.846 182.426 150 182.807 150 183.205V270.391C150 271.787 148.321 272.388 147.515 271.281L125.141 240.546C124.955 240.29 124.855 239.977 124.855 239.656V221.402C124.855 220.134 123.429 219.468 122.539 220.319L114.039 228.441C113.487 228.969 112.636 228.941 112.116 228.377L89.0801 203.41C88.1507 202.402 88.9734 200.727 90.2896 200.947L99.9474 202.557C100.248 202.607 100.557 202.552 100.824 202.398L109.819 197.253C110.943 196.611 110.713 194.843 109.467 194.543L73.0821 185.78C72.8562 185.725 72.6467 185.612 72.473 185.45L48.767 163.355C47.8108 162.464 48.4085 160.798 49.6846 160.798H63.8911C64.2042 160.798 64.5082 160.687 64.7533 160.481L77.6438 149.674C78.6202 148.855 78.1543 147.199 76.9125 147.075L46.6904 144.048C46.2693 144.006 45.8896 143.763 45.6592 143.389L28.452 115.444C27.8533 114.472 28.5149 113.186 29.6141 113.186H45.8076C47.0519 113.186 47.6656 111.591 46.773 110.676L22.384 85.6919C22.1547 85.4569 22.0094 85.1455 21.9729 84.8105Z" fill="white"/>
<path d="M148.815 63.2098C149.213 61.7391 150.787 61.7391 151.185 63.2098L172.316 141.143C172.752 142.752 171.29 144.082 170.309 142.967L150.821 120.805C150.349 120.268 149.651 120.268 149.179 120.805L129.691 142.967C128.71 144.082 127.248 142.753 127.684 141.143L148.815 63.2098Z" fill="white"/>
<path d="M149.312 168.13C149.73 168.49 150.27 168.49 150.688 168.13L170.978 150.634C172.211 149.571 171.299 147.053 169.9 147.656L150.39 156.068C150.137 156.177 149.863 156.177 149.61 156.068L130.1 147.656C128.701 147.053 127.789 149.571 129.022 150.634L149.312 168.13Z" fill="white"/>
</svg>
