<svg width="1651" height="300" viewBox="0 0 1651 300" fill="none" xmlns="http://www.w3.org/2000/svg">
<path fill-rule="evenodd" clip-rule="evenodd" d="M99.3173 85.7134C102.37 82.2244 107.673 81.8709 111.162 84.9237L178.315 143.683C180.137 145.277 181.182 147.579 181.182 150C181.182 152.421 180.137 154.723 178.315 156.317L111.162 215.076C107.673 218.129 102.37 217.776 99.3173 214.287C96.2645 210.798 96.618 205.495 100.107 202.442L160.04 150L100.107 97.5582C96.618 94.5054 96.2645 89.2023 99.3173 85.7134Z" fill="#101828"/>
<path fill-rule="evenodd" clip-rule="evenodd" d="M165.233 208.759C165.233 204.123 168.991 200.365 173.627 200.365H223.992C228.628 200.365 232.386 204.123 232.386 208.759C232.386 213.395 228.628 217.153 223.992 217.153H173.627C168.991 217.153 165.233 213.395 165.233 208.759Z" fill="#101828"/>
<path d="M1534.43 188.744C1527.07 188.744 1521.78 187.037 1518.56 183.622C1515.38 180.16 1513.8 175.375 1513.8 169.267V126.49H1497.85V113.289H1513.8V90.0604L1528.8 82.8467V113.289H1553.76V126.49H1528.8V165.805C1528.8 167.776 1529.11 169.484 1529.74 170.926C1530.36 172.321 1531.42 173.403 1532.91 174.172C1534.45 174.942 1536.57 175.327 1539.26 175.327C1542.05 175.327 1544.48 174.966 1546.55 174.245C1548.61 173.475 1550.54 172.609 1552.32 171.648L1550.51 185.426C1548.49 186.484 1546.21 187.301 1543.66 187.879C1541.11 188.456 1538.03 188.744 1534.43 188.744Z" fill="#101828"/>
<path d="M1427.92 187.013V126.49H1412.2V113.289H1427.92V102.901C1427.92 99.1979 1428.62 96.1441 1430.01 93.7395C1431.46 91.2868 1433.36 89.3872 1435.71 88.0406C1438.07 86.646 1440.64 85.6842 1443.43 85.1552C1446.22 84.5781 1449.01 84.2895 1451.8 84.2895C1455.45 84.2895 1458.6 84.6021 1461.25 85.2273C1463.94 85.8044 1466.47 86.67 1468.82 87.8242V100.376C1466.42 99.3181 1464.06 98.5967 1461.75 98.212C1459.49 97.8273 1457.16 97.6349 1454.76 97.6349C1452.21 97.6349 1450.04 97.9475 1448.26 98.5727C1446.53 99.1979 1445.21 100.112 1444.3 101.314C1443.38 102.516 1442.93 103.983 1442.93 105.714V113.289H1466.44V126.49H1442.93V187.013H1427.92ZM1412.2 187.013V173.812H1462.55V187.013H1412.2Z" fill="#101828"/>
<path d="M1344.5 188.744C1339.35 188.744 1334.74 187.83 1330.65 186.003C1326.61 184.175 1323.41 181.434 1321.06 177.779C1318.7 174.124 1317.52 169.555 1317.52 164.073C1317.52 158.398 1318.92 153.781 1321.7 150.223C1324.54 146.616 1328.17 143.971 1332.6 142.288C1337.02 140.556 1341.66 139.691 1346.52 139.691C1350.22 139.691 1353.59 140.027 1356.62 140.701C1359.65 141.374 1362.61 142.456 1365.49 143.947V139.114C1365.49 135.459 1364.87 132.573 1363.62 130.457C1362.37 128.341 1360.61 126.85 1358.35 125.985C1356.09 125.119 1353.47 124.686 1350.49 124.686C1346.45 124.686 1342.38 125.408 1338.3 126.85C1334.21 128.293 1330.48 130.096 1327.12 132.261L1322.64 119.925C1326.06 117.761 1330.31 115.837 1335.41 114.154C1340.56 112.423 1346.04 111.557 1351.86 111.557C1354.94 111.557 1358.11 111.894 1361.38 112.567C1364.7 113.24 1367.75 114.515 1370.54 116.39C1373.38 118.266 1375.64 121.007 1377.32 124.614C1379.05 128.173 1379.92 132.862 1379.92 138.681V187.013H1365.49V180.881C1363.23 182.997 1360.37 184.849 1356.91 186.436C1353.49 187.975 1349.36 188.744 1344.5 188.744ZM1347.03 175.615C1351.26 175.615 1354.89 174.749 1357.92 173.018C1361 171.287 1363.52 169.363 1365.49 167.247V156.499C1363.38 155.344 1360.85 154.407 1357.92 153.685C1354.98 152.916 1351.93 152.531 1348.76 152.531C1344.28 152.531 1340.34 153.445 1336.93 155.272C1333.56 157.1 1331.88 160.033 1331.88 164.073C1331.88 167.488 1333.2 170.277 1335.84 172.441C1338.49 174.557 1342.22 175.615 1347.03 175.615Z" fill="#101828"/>
<path d="M1223.86 187.013V173.812H1239.37V126.49H1223.86V113.288H1253.43V129.664L1252.57 127.499C1253.67 124.374 1255.57 121.608 1258.27 119.204C1261.01 116.799 1264.25 114.924 1268 113.577C1271.76 112.23 1275.77 111.557 1280.05 111.557C1283.75 111.557 1287 111.942 1289.79 112.711C1292.58 113.433 1294.86 114.298 1296.64 115.308V141.927H1281.93V119.709L1287.84 126.417C1286.5 126.129 1285.17 125.937 1283.87 125.84C1282.62 125.696 1281.47 125.624 1280.41 125.624C1274.74 125.624 1269.98 126.49 1266.13 128.221C1262.28 129.904 1259.37 132.357 1257.4 135.579C1255.43 138.801 1254.44 142.648 1254.44 147.121V173.812H1275.43V187.013H1223.86Z" fill="#101828"/>
<path d="M1169.58 188.744C1162.94 188.744 1157.19 187.205 1152.34 184.127C1147.53 181.05 1143.83 176.625 1141.23 170.854C1138.63 165.083 1137.33 158.158 1137.33 150.079C1137.33 142.047 1138.68 135.17 1141.37 129.447C1144.07 123.676 1147.79 119.252 1152.55 116.174C1157.36 113.096 1162.92 111.557 1169.22 111.557C1173.59 111.557 1177.37 112.255 1180.54 113.649C1183.72 114.996 1186.24 116.631 1188.12 118.555V89.844L1203.12 82.8467V187.013H1188.12V181.17C1186.58 183.093 1184.22 184.849 1181.05 186.436C1177.87 187.975 1174.05 188.744 1169.58 188.744ZM1171.6 174.533C1175.54 174.533 1178.86 173.836 1181.55 172.441C1184.25 170.998 1186.43 168.93 1188.12 166.237V133.703C1186.87 131.876 1184.92 130.073 1182.27 128.293C1179.63 126.514 1176 125.624 1171.38 125.624C1165.32 125.624 1160.66 127.74 1157.39 131.972C1154.17 136.156 1152.55 142.192 1152.55 150.079C1152.55 154.84 1153.3 159.072 1154.79 162.775C1156.28 166.43 1158.42 169.315 1161.21 171.431C1164.05 173.499 1167.51 174.533 1171.6 174.533Z" fill="#101828"/>
<path d="M1052.18 216.084V113.288H1067.19V119.132C1069.25 117.016 1071.73 115.236 1074.62 113.793C1077.55 112.303 1081.3 111.557 1085.87 111.557C1092.41 111.557 1098.08 113.096 1102.89 116.174C1107.75 119.252 1111.5 123.676 1114.15 129.447C1116.79 135.218 1118.11 142.119 1118.11 150.151C1118.11 158.278 1116.72 165.227 1113.93 170.998C1111.19 176.721 1107.39 181.121 1102.53 184.199C1097.72 187.229 1092.24 188.744 1086.09 188.744C1081.32 188.744 1077.45 187.975 1074.47 186.436C1071.54 184.849 1069.11 182.925 1067.19 180.665V209.087L1052.18 216.084ZM1083.99 174.533C1090 174.533 1094.65 172.441 1097.92 168.257C1101.23 164.025 1102.89 157.989 1102.89 150.151C1102.89 142.744 1101.23 136.805 1097.92 132.333C1094.65 127.86 1089.91 125.624 1083.7 125.624C1079.91 125.624 1076.61 126.369 1073.82 127.86C1071.08 129.351 1068.87 131.395 1067.19 133.992V166.165C1068.87 168.425 1071.08 170.397 1073.82 172.08C1076.61 173.715 1080 174.533 1083.99 174.533Z" fill="#101828"/>
<path d="M990.401 188.744C984.967 188.744 980.182 187.734 976.046 185.714C971.91 183.646 968.664 180.28 966.307 175.615C963.999 170.95 962.845 164.722 962.845 156.931V113.288H977.849V155.2C977.849 162.318 979.364 167.319 982.394 170.205C985.472 173.042 989.223 174.461 993.647 174.461C996.677 174.461 999.466 173.908 1002.02 172.802C1004.61 171.647 1006.68 169.7 1008.22 166.958C1009.81 164.169 1010.6 160.346 1010.6 155.489V113.288H1025.6V187.013H1010.6V179.871C1008.39 182.612 1005.55 184.776 1002.09 186.363C998.625 187.95 994.729 188.744 990.401 188.744Z" fill="#101828"/>
<path d="M785.038 187.013V113.288H800.042V129.519L797.95 125.408C798.335 123.051 799.561 120.839 801.629 118.771C803.745 116.655 806.438 114.924 809.709 113.577C812.979 112.23 816.634 111.557 820.673 111.557C825.915 111.557 830.58 112.591 834.668 114.659C838.804 116.679 842.05 119.997 844.407 124.614C846.763 129.183 847.941 135.314 847.941 143.009V187.013H833.009V144.596C833.009 137.575 831.446 132.669 828.32 129.88C825.194 127.043 821.419 125.624 816.994 125.624C813.868 125.624 811.007 126.201 808.41 127.355C805.861 128.461 803.817 130.385 802.278 133.126C800.788 135.819 800.042 139.546 800.042 144.307V187.013H785.038Z" fill="#101828"/>
<path d="M721.094 186.291V113.288H736.098V186.291H721.094ZM700.751 187.013V173.812H756.441V187.013H700.751ZM700.751 126.49V113.288H730.472V126.49H700.751ZM728.524 101.819C726.023 101.819 723.883 100.929 722.104 99.1495C720.372 97.3701 719.507 95.206 719.507 92.6572C719.507 90.1083 720.372 87.9682 722.104 86.2369C723.883 84.4576 726.023 83.5679 728.524 83.5679C731.169 83.5679 733.357 84.4576 735.088 86.2369C736.82 87.9682 737.685 90.1083 737.685 92.6572C737.685 95.206 736.82 97.3701 735.088 99.1495C733.357 100.929 731.169 101.819 728.524 101.819Z" fill="#101828"/>
<path d="M601.532 187.013V173.812H617.041V126.49H601.532V113.288H631.108V129.664L630.243 127.499C631.349 124.374 633.248 121.608 635.941 119.204C638.683 116.799 641.929 114.924 645.68 113.577C649.431 112.23 653.447 111.557 657.727 111.557C661.43 111.557 664.676 111.942 667.465 112.711C670.255 113.433 672.539 114.298 674.318 115.308V141.927H659.602V119.709L665.518 126.417C664.171 126.129 662.849 125.937 661.55 125.84C660.3 125.696 659.146 125.624 658.088 125.624C652.413 125.624 647.652 126.49 643.804 128.221C639.957 129.904 637.047 132.357 635.076 135.579C633.104 138.801 632.118 142.648 632.118 147.121V173.812H653.11V187.013H601.532Z" fill="#101828"/>
<path d="M538.886 187.013V126.49H523.16V113.289H538.886V102.901C538.886 99.1979 539.584 96.1441 540.978 93.7395C542.421 91.2868 544.321 89.3872 546.677 88.0406C549.034 86.646 551.607 85.6842 554.396 85.1552C557.185 84.5781 559.974 84.2895 562.764 84.2895C566.419 84.2895 569.569 84.6021 572.214 85.2273C574.907 85.8044 577.432 86.67 579.788 87.8242V100.376C577.384 99.3181 575.027 98.5967 572.719 98.212C570.458 97.8273 568.126 97.6349 565.721 97.6349C563.173 97.6349 561.008 97.9475 559.229 98.5727C557.498 99.1979 556.175 100.112 555.261 101.314C554.348 102.516 553.891 103.983 553.891 105.714V113.289H577.408V126.49H553.891V187.013H538.886ZM523.16 187.013V173.812H573.512V187.013H523.16Z" fill="#101828"/>
<path d="M442.048 215.002L453.229 185.426L425.817 113.288H441.038L458.351 160.105C458.735 161.212 459.12 162.366 459.505 163.568C459.89 164.77 460.25 165.973 460.587 167.175C460.972 165.925 461.356 164.722 461.741 163.568C462.126 162.366 462.535 161.212 462.967 160.105L480.352 113.288H495.79L457.413 215.002H442.048Z" fill="#101828"/>
<path d="M373.415 188.744C363.364 188.744 355.38 185.378 349.465 178.645C343.55 171.864 340.592 162.39 340.592 150.223C340.592 142.191 341.963 135.29 344.704 129.519C347.445 123.748 351.293 119.324 356.246 116.246C361.248 113.12 367.139 111.557 373.92 111.557C381.085 111.557 387.121 113.12 392.026 116.246C396.931 119.324 400.514 124.061 402.775 130.457L388.708 135.362C387.602 132.525 385.846 130.193 383.442 128.365C381.085 126.538 377.911 125.624 373.92 125.624C367.956 125.624 363.46 127.86 360.43 132.333C357.4 136.805 355.885 142.769 355.885 150.223C355.885 157.773 357.4 163.712 360.43 168.041C363.508 172.369 367.908 174.533 373.631 174.533C377.671 174.533 380.989 173.595 383.586 171.72C386.183 169.796 388.083 167.103 389.285 163.64L403.352 168.185C401.284 174.822 397.725 179.919 392.675 183.478C387.626 186.989 381.206 188.744 373.415 188.744Z" fill="#101828"/>
</svg>
