<svg width="1435" height="300" viewBox="0 0 1435 300" fill="none" xmlns="http://www.w3.org/2000/svg">
<path d="M448.053 224.683C408.122 224.683 382.251 196.938 382.251 154.007C382.251 111.452 409.059 83.1437 449.178 83.1437C481.61 83.1437 505.793 102.078 510.48 131.511H485.172C480.485 115.576 466.8 106.202 448.615 106.202C423.307 106.202 407.372 124.575 407.372 153.82C407.372 182.878 423.494 201.625 448.615 201.625C467.175 201.625 481.422 191.876 485.922 176.691H510.855C505.606 205.561 480.485 224.683 448.053 224.683ZM523.564 175.941C523.564 147.071 544.373 127.199 573.056 127.199C601.738 127.199 622.548 147.071 622.548 175.941C622.548 204.812 601.738 224.683 573.056 224.683C544.373 224.683 523.564 204.812 523.564 175.941ZM546.435 175.941C546.435 192.814 557.308 204.249 573.056 204.249C588.803 204.249 599.676 192.814 599.676 175.941C599.676 159.069 588.803 147.633 573.056 147.633C557.308 147.633 546.435 159.069 546.435 175.941ZM678.733 224.871C651.925 224.871 635.24 205.187 635.24 176.504C635.24 147.633 652.112 127.012 680.045 127.012C692.981 127.012 704.416 132.448 710.228 141.634V82.9562H732.912V222.434H711.915L710.415 207.999C704.791 218.684 692.793 224.871 678.733 224.871ZM683.795 203.874C699.73 203.874 710.04 192.439 710.04 175.754C710.04 159.069 699.73 147.446 683.795 147.446C667.86 147.446 658.111 159.256 658.111 175.754C658.111 192.251 667.86 203.874 683.795 203.874ZM798.178 224.871C770.619 224.871 751.31 204.812 751.31 176.129C751.31 147.071 770.245 127.012 797.428 127.012C825.173 127.012 842.795 145.571 842.795 174.441V181.378L773.057 181.565C774.744 197.875 783.367 206.124 798.553 206.124C811.113 206.124 819.362 201.25 821.986 192.439H843.17C839.233 212.685 822.361 224.871 798.178 224.871ZM797.615 145.759C784.117 145.759 775.869 153.07 773.619 166.943H820.112C820.112 154.195 811.3 145.759 797.615 145.759ZM888.471 222.434H864.475V85.3933H888.471V142.009H949.211V85.3933H973.207V222.434H949.211V164.318H888.471V222.434ZM1027.8 224.871C1008.11 224.871 996.114 213.435 996.114 196.001C996.114 178.941 1008.49 168.255 1030.42 166.568L1058.17 164.506V162.443C1058.17 149.883 1050.67 144.821 1039.04 144.821C1025.55 144.821 1018.05 150.445 1018.05 160.194H998.551C998.551 140.135 1015.05 127.012 1040.17 127.012C1065.1 127.012 1080.47 140.509 1080.47 166.193V222.434H1060.42L1058.73 208.748C1054.79 218.309 1042.23 224.871 1027.8 224.871ZM1035.29 207.624C1049.35 207.624 1058.35 199.188 1058.35 184.94V180.066L1039.04 181.565C1024.8 182.878 1019.36 187.564 1019.36 195.063C1019.36 203.499 1024.98 207.624 1035.29 207.624ZM1120.63 222.434L1090.64 129.824H1114.45L1126.63 169.567C1128.69 176.879 1130.57 184.94 1132.25 193.563C1133.94 184.565 1135.63 178.753 1138.63 169.567L1151.38 129.824H1174.62L1187 169.567C1188.12 173.317 1191.87 187.189 1192.99 193.376C1194.49 186.44 1197.49 175.379 1199.18 169.567L1211.55 129.824H1235.74L1203.68 222.434H1182.31L1169.56 182.315C1165.81 170.13 1163.75 161.319 1163 156.632C1162.06 160.944 1160.38 167.505 1155.69 182.69L1142.94 222.434H1120.63ZM1272.65 222.434H1249.96V82.9562H1272.65V168.63L1308.64 129.824H1337.32L1302.08 166.568L1336.57 222.434H1310.33L1286.14 183.44L1272.65 197.5V222.434ZM1343.16 194.313H1364.9C1365.09 202.374 1371.09 207.436 1381.59 207.436C1392.27 207.436 1398.08 203.124 1398.08 196.375C1398.08 191.689 1395.65 188.314 1387.4 186.44L1370.71 182.503C1354.03 178.753 1345.97 170.88 1345.97 156.069C1345.97 137.885 1361.34 127.012 1382.71 127.012C1403.52 127.012 1417.58 139.01 1417.77 157.007H1396.02C1395.83 149.133 1390.59 144.071 1381.77 144.071C1372.78 144.071 1367.53 148.196 1367.53 155.132C1367.53 160.381 1371.65 163.756 1379.52 165.63L1396.21 169.567C1411.77 173.129 1419.64 180.253 1419.64 194.501C1419.64 213.248 1403.71 224.871 1380.84 224.871C1357.78 224.871 1343.16 212.498 1343.16 194.313Z" fill="#101828"/>
<path d="M280.815 84.7861L286.818 29.7525C286.953 28.5212 285.664 27.6836 284.682 28.3634L242.967 57.2255L178.871 97.0746C178.363 97.3906 178.1 98.0116 178.216 98.6217L187.362 146.606C187.455 147.096 187.305 147.603 186.963 147.949L153.213 182.126C152.941 182.402 152.787 182.783 152.787 183.181V270.367C152.787 271.763 154.466 272.364 155.272 271.257L177.646 240.522C177.832 240.266 177.933 239.953 177.933 239.632V221.378C177.933 220.11 179.358 219.444 180.249 220.295L188.748 228.417C189.301 228.945 190.151 228.917 190.671 228.353L213.707 203.386C214.637 202.378 213.814 200.703 212.498 200.923L202.84 202.533C202.539 202.583 202.231 202.527 201.963 202.374L192.968 197.229C191.845 196.586 192.074 194.819 193.32 194.519L229.705 185.756C229.931 185.701 230.141 185.588 230.314 185.426L254.021 163.331C254.977 162.44 254.379 160.774 253.103 160.774H238.896C238.583 160.774 238.279 160.662 238.034 160.457L225.144 149.649C224.167 148.831 224.633 147.175 225.875 147.05L256.097 144.024C256.518 143.982 256.898 143.739 257.128 143.365L274.336 115.42C274.934 114.447 274.273 113.162 273.174 113.162H256.98C255.736 113.162 255.122 111.566 256.015 110.652L280.404 85.6675C280.633 85.4325 280.778 85.1211 280.815 84.7861Z" fill="#FF692E"/>
<path d="M24.7598 84.7861L18.7562 29.7525C18.6218 28.5212 19.9103 27.6836 20.8928 28.3634L62.6078 57.2255L126.703 97.0746C127.212 97.3906 127.475 98.0116 127.358 98.6217L118.213 146.606C118.119 147.096 118.27 147.603 118.611 147.949L152.361 182.126C152.633 182.402 152.787 182.783 152.787 183.181V270.367C152.787 271.763 151.109 272.364 150.303 271.257L127.929 240.522C127.743 240.266 127.642 239.953 127.642 239.632V221.378C127.642 220.11 126.217 219.444 125.326 220.295L116.827 228.417C116.274 228.945 115.423 228.917 114.903 228.353L91.8673 203.386C90.9379 202.378 91.7605 200.703 93.0767 200.923L102.735 202.533C103.035 202.583 103.344 202.527 103.612 202.374L112.607 197.229C113.73 196.586 113.5 194.819 112.255 194.519L75.8692 185.756C75.6433 185.701 75.4338 185.588 75.2602 185.426L51.5541 163.331C50.5978 162.44 51.1955 160.774 52.4717 160.774H66.6782C66.9913 160.774 67.2953 160.662 67.5404 160.457L80.4309 149.649C81.4073 148.831 80.9414 147.175 79.6996 147.05L49.4774 144.024C49.0564 143.982 48.6766 143.739 48.4463 143.365L31.239 115.42C30.6403 114.447 31.3019 113.162 32.4011 113.162H48.5946C49.8389 113.162 50.4526 111.566 49.56 110.652L25.171 85.6675C24.9417 85.4325 24.7964 85.1211 24.7598 84.7861Z" fill="#FF692E"/>
<path d="M151.602 63.1854C152.001 61.7146 153.574 61.7146 153.973 63.1854L175.103 141.119C175.539 142.728 174.077 144.058 173.096 142.943L153.608 120.781C153.136 120.244 152.438 120.244 151.966 120.781L132.478 142.943C131.498 144.058 130.035 142.728 130.472 141.119L151.602 63.1854Z" fill="#FF692E"/>
<path d="M152.099 168.106C152.518 168.466 153.057 168.466 153.475 168.106L173.765 150.61C174.998 149.547 174.086 147.029 172.687 147.632L153.178 156.044C152.924 156.153 152.651 156.153 152.397 156.044L132.888 147.632C131.488 147.029 130.577 149.547 131.809 150.61L152.099 168.106Z" fill="#FF692E"/>
</svg>
